:SAMPLES-PER-SECOND 30
:FRAME-RANGE 1-4244
:FULLY-SPECIFIED
:DEGREES
929
root  28.9974 31.7261 -27.7411 -1.14948 -20.3671 -12.2426
RightUpLeg  -29.8672 -7.58373 -8.02786
RightLeg  63.0337 -0.333453 -1.27763
RightFoot  -22.0563 1.84382 21.0505
RightToes  -1.33073e-015 0 -3.6325e-017
Spine  17.8517 -1.21716 -9.40394
Spine1  -4.72777 -2.82912 1.97958
HEad  12.4101 -39.5687 8.53506
LeftShoulder1  2.04045 -5.93985 -15.5253
LeftArm  28.3237 -9.76576 -77.1887
LeftForeArm  58.6665 -72.9628 -30.3557
LeftHand  -0.230465 2.56636 9.14784
RightShoulder  1.944 3.28614 23.3562
RightArm  34.4569 4.24608 66.6488
RightForeArm  45.4408 41.1706 6.88621
RightHand  0.333321 -7.70404 -17.5254
LeftUpLeg  -39.3245 -2.9441 37.6751
LeftLeg  78.9495 -1.88232 -9.97092
LeftFoot  -22.1916 -0.956649 -11.4407
LeftToes  2.72522e-012 8.43823e-011 6.24977e-012
930
root  28.2966 31.7622 -27.0867 -1.10223 -17.4284 -15.3683
RightUpLeg  -26.3105 -10.2672 -4.50598
RightLeg  63.1109 -0.572249 -1.79654
RightFoot  -24.3171 2.172 20.3647
RightToes  -1.33073e-015 0 -3.6325e-017
Spine  16.6623 -1.2521 -13.396
Spine1  -3.94619 -3.40299 2.28164
HEad  15.7411 -41.0691 10.3578
LeftShoulder1  1.95362 -5.73881 -15.0111
LeftArm  27.5214 -7.47701 -75.7157
LeftForeArm  77.7253 -78.3263 -48.2668
LeftHand  -0.180221 2.80514 7.64889
RightShoulder  1.76572 2.72414 23.1189
RightArm  35.7347 2.5197 67.0945
RightForeArm  48.5688 47.1996 8.64075
RightHand  0.32507 -8.00672 -15.3282
LeftUpLeg  -38.7367 -4.15723 43.0812
LeftLeg  71.889 -6.52253 -20.6176
LeftFoot  -20.3392 -0.900356 -12.9422
LeftToes  2.72522e-012 8.43823e-011 6.24977e-012
931
root  27.9149 31.7344 -26.317 -0.995239 -14.7479 -18.6846
RightUpLeg  -22.8386 -13.2289 -1.55676
RightLeg  62.4745 -0.463902 -1.52075
RightFoot  -26.0173 2.41957 19.9858
RightToes  -1.33073e-015 0 -3.6325e-017
Spine  15.2908 -1.47003 -16.6503
Spine1  -2.57596 -4.05735 3.15665
HEad  18.4502 -40.8781 11.0881
LeftShoulder1  1.96568 -5.73454 -15.1684
LeftArm  26.0605 -6.05776 -73.4036
LeftForeArm  103.875 -80.907 -74.4231
LeftHand  -0.153262 3.19221 7.47458
RightShoulder  1.61745 2.17473 23.3447
RightArm  34.0704 -0.20614 64.987
RightForeArm  52.1932 54.578 11.4751
RightHand  0.382103 -9.11423 -12.7725
LeftUpLeg  -37.835 -6.12443 46.6371
LeftLeg  67.9557 -9.49727 -23.6828
LeftFoot  -21.8698 -1.64485 -19.1112
LeftToes  2.72522e-012 8.43823e-011 6.24977e-012
932
root  27.7083 31.6233 -25.6815 -0.361267 -13.8428 -20.4275
RightUpLeg  -21.607 -13.5841 0.146615
RightLeg  62.5075 -0.668354 -1.94931
RightFoot  -27.3291 2.66727 20.1366
RightToes  -1.33073e-015 0 -3.6325e-017
Spine  13.9605 -0.962534 -20.8932
Spine1  -2.21316 -3.99154 3.89773
HEad  19.558 -39.8951 11.2996
LeftShoulder1  1.7827 -4.90335 -15.1372
LeftArm  24.2814 -5.25047 -72.4888
LeftForeArm  117.187 -81.2075 -88.3973
LeftHand  -0.142731 3.41308 7.64076
RightShoulder  1.47581 1.68882 23.3625
RightArm  31.9817 -3.37987 61.3706
RightForeArm  54.7065 61.1884 15.2233
RightHand  0.223973 -8.39517 -9.84565
LeftUpLeg  -37.1765 -6.31711 47.198
LeftLeg  68.4024 -6.86399 -17.8218
LeftFoot  -25.1051 -2.12908 -18.7367
LeftToes  2.72522e-012 8.43823e-011 6.24977e-012
933
root  27.8055 31.3911 -25.1296 0.316345 -10.9639 -22.8234
RightUpLeg  -20.3691 -14.9375 2.08899
RightLeg  62.2764 -1.14356 -2.91303
RightFoot  -28.3404 3.05006 21.4793
RightToes  -1.33073e-015 0 -3.6325e-017
Spine  14.2204 -1.01238 -23.1052
Spine1  -1.30082 -4.70032 5.46965
HEad  18.0056 -39.5984 13.1553
LeftShoulder1  1.8176 -4.82868 -15.8246
LeftArm  21.6482 -5.86451 -70.8735
LeftForeArm  116.911 -81.1625 -89.2442
LeftHand  -0.133289 3.54468 7.55087
RightShoulder  1.39101 1.41848 23.2392
RightArm  29.1474 -6.16778 58.2349
RightForeArm  55.5283 65.3997 18.7844
RightHand  0.263066 -9.25523 -8.96337
LeftUpLeg  -38.791 -7.32953 48.5159
LeftLeg  69.0983 -5.11716 -13.8052
LeftFoot  -28.3782 -2.45749 -17.4263
LeftToes  2.72522e-012 8.43823e-011 6.24977e-012
934
root  28.0591 31.1943 -24.6557 0.283752 -6.98001 -24.1543
RightUpLeg  -18.8802 -17.4787 2.57973
RightLeg  62.0502 -1.6144 -3.84794
RightFoot  -28.8203 3.35305 22.8208
RightToes  -1.33073e-015 0 -3.6325e-017
Spine  15.8713 -0.999451 -24.4356
Spine1  -0.554546 -5.49411 6.50879
HEad  16.5066 -41.4041 14.9367
LeftShoulder1  1.95722 -5.52004 -15.6416
LeftArm  19.2202 -6.879 -70.0629
LeftForeArm  97.6743 -80.611 -70.7782
LeftHand  -0.141746 3.58482 8.28724
RightShoulder  1.27301 0.95128 23.7028
RightArm  26.1403 -8.11575 56.6685
RightForeArm  54.5761 65.6858 19.1944
RightHand  0.172062 -8.43381 -7.86855
LeftUpLeg  -41.5589 -10.3391 50.1656
LeftLeg  69.8001 -5.29823 -14.8742
LeftFoot  -30.7846 -2.8687 -17.7015
LeftToes  2.72522e-012 8.43823e-011 6.24977e-012
935
root  28.3674 31.0205 -24.2363 1.26086 -4.77048 -24.2234
RightUpLeg  -19.354 -17.4421 2.36997
RightLeg  62.285 -2.21199 -5.11847
RightFoot  -29.0052 3.55975 23.8734
RightToes  -1.33073e-015 0 -3.6325e-017
Spine  16.2635 -0.561349 -25.2336
Spine1  -0.0501479 -5.30347 6.46087
HEad  14.4011 -44.2535 17.098
LeftShoulder1  2.03442 -5.78436 -15.8654
LeftArm  18.2341 -8.38786 -68.7214
LeftForeArm  76.7208 -78.5387 -50.666
LeftHand  -0.154759 3.52698 8.88372
RightShoulder  1.20156 0.6385 24.2774
RightArm  22.5513 -10.084 56.7292
RightForeArm  54.579 64.2042 17.7228
RightHand  0.155517 -7.93448 -8.52485
LeftUpLeg  -44.4052 -10.1802 49.9088
LeftLeg  71.5782 -5.03707 -15.6981
LeftFoot  -31.5851 -2.79455 -16.6175
LeftToes  2.72522e-012 8.43823e-011 6.24977e-012
